<?xml version="1.0" encoding="utf-8"?>
<!-- Generator: Adobe Illustrator 23.0.3, SVG Export Plug-In . SVG Version: 6.00 Build 0)  -->
<svg version="1.1" id="Layer_1" xmlns="http://www.w3.org/2000/svg" xmlns:xlink="http://www.w3.org/1999/xlink" x="0px" y="0px"
	 viewBox="0 0 100 100" style="enable-background:new 0 0 100 100;" xml:space="preserve">
<style type="text/css">
	.st0{fill:#FFFFFF;}
	.st1{fill:#FF9900;}
</style>
<g id="authorkit_wp">
	<path class="st0" d="M14.2,13.9c0,0,14.7-3.5,35.5,9.1C74.5,10.2,85,13.9,85,13.9v49.3L50,76.5L14.4,65.6L14.2,13.9z"/>
	<path class="st1" d="M91.6,18.2c-1.5-0.3-3.1-0.5-4.7-0.7v-4.1c0-0.8-0.6-1.5-1.4-1.5c-11.9-0.4-24.3,2.7-35.8,8.9
		c-11.5-6.1-23.8-9.2-35.6-8.9c-0.8,0-1.5,0.7-1.5,1.5v4.1c-1.6,0.2-3.1,0.4-4.7,0.7c-0.7,0.1-1.2,0.7-1.2,1.5v49.6
		c0,0.1,0,0.2,0,0.3c0.1,0.8,0.8,1.3,1.6,1.2c0.2,0,0.3-0.1,0.5-0.1c3-0.2,28.9,2,39.2,11c0.5,0.4,1.1,0.6,1.7,0.6
		c0.6,0,1.3-0.2,1.8-0.6c12.9-10.7,36.8-11.3,39.3-11c0.1,0.1,0.3,0.1,0.4,0.1c0.8,0.1,1.5-0.4,1.6-1.2c0-0.1,0-0.2,0-0.3V19.7
		C92.9,18.9,92.4,18.3,91.6,18.2z M67.2,55.8l-2.8-3.4l2.3-3.8l4.3,0.9c0.4,0.1,0.8,0,1.2-0.3l4.2-3.1c0.3-0.3,0.6-0.6,0.6-1.1
		l0.5-4.3l4.3-1.1l2,3v6.3c-3.8,0.4-7.3,2.3-9.7,5.7c-1.8,2.5-2.5,5.6-2.3,8.5c-3,0.8-5.9,1.7-8.8,2.8l-0.3-0.5l3.5-2.3
		c0.3-0.2,0.6-0.6,0.7-1l0.8-5.1C67.6,56.5,67.5,56.1,67.2,55.8z M84,14.9l-0.2,22.4l-0.1-0.1c-0.3-0.5-1-0.8-1.6-0.6l-6.4,1.6
		c-0.6,0.2-1.1,0.7-1.1,1.3l-0.5,4.7L71,46.4l-4.7-1c-0.6-0.1-1.3,0.1-1.6,0.7l-3.4,5.6c-0.3,0.5-0.3,1.2,0.1,1.7l3,3.7L63.9,61
		l-4,2.6c-0.6,0.4-0.9,1.2-0.5,1.9l0.8,1.6c-2.9,1.3-5.8,2.7-8.7,4.4l-0.3-48.1C61.7,17.7,73.1,14.8,84,14.9z M15.9,14.9
		c10.8,0,21.9,2.9,32.3,8.4l0.3,48.2C38,65.5,26.9,61.9,16,61.1l-0.3-46.3h0.2V14.9z"/>
</g>
</svg>
