<?xml version="1.0" encoding="utf-8"?>
<!-- Generator: Adobe Illustrator 23.0.3, SVG Export Plug-In . SVG Version: 6.00 Build 0)  -->
<svg version="1.1" xmlns="http://www.w3.org/2000/svg" xmlns:xlink="http://www.w3.org/1999/xlink" x="0px" y="0px"
	 viewBox="0 0 100 100" style="enable-background:new 0 0 100 100;" xml:space="preserve">
<style type="text/css">
	.st0{display:none;}
	.st1{display:inline;}
	.st2{fill:none;stroke:#19395C;stroke-width:3;stroke-linecap:round;stroke-linejoin:round;stroke-miterlimit:10;}
	.st3{fill:#EF8E30;}
	.st4{fill:none;stroke:#19395C;stroke-width:3;stroke-linejoin:round;stroke-miterlimit:10;}
	.st5{fill:none;stroke:#19395C;stroke-width:2;stroke-linejoin:round;stroke-miterlimit:10;}
	.st6{fill:none;stroke:#EF8E30;stroke-width:3;stroke-linecap:round;stroke-linejoin:round;stroke-miterlimit:10;}
</style>
<g id="authorkit" class="st0">
	<g class="st1">
		<g>
			<path class="st2" d="M85.46,42.21l-2.8-4.25c-3.2,0.78-3.2,0.78-6.4,1.57l-0.55,5.39c-1.67,1.23-2.52,1.84-4.19,3.07l-5.31-1.1
				c-1.71,2.81-1.71,2.82-3.42,5.63l3.43,4.2c-0.31,2.05-0.47,3.08-0.79,5.13l-4.53,2.98l1.38,2.94"/>
			<path class="st3" d="M85.23,62.28c0.03-0.03,0.05-0.06,0.08-0.09l0.1-13.28c-4.29-0.05-8.54,1.95-11.17,5.75
				c-2.05,2.95-2.72,6.6-2.19,9.89C72.88,64.3,83.52,62.46,85.23,62.28z"/>
		</g>
		<g>
			<path class="st2" d="M14.28,18.84c-1.96,0.24-3.91,0.52-5.85,0.84c0,16.54,0,33.08,0,49.62c-0.15-0.76,29.3,1.2,40.75,11.14
				c0.44,0.35,1.19,0.34,1.64,0C64.73,68.9,91.69,68.73,91.56,69.29c0-16.54,0-33.08,0-49.62c-1.94-0.32-3.89-0.6-5.85-0.84"/>
		</g>
		<g>
			<path class="st2" d="M49.83,22.41c-11.61-6.34-23.91-9.35-35.51-9.02c0.12,16.39,0.24,32.77,0.36,49.16
				c11.6,0.55,23.89,4.42,35.47,11.63C50.05,56.92,49.94,39.67,49.83,22.41z"/>
		</g>
		<g>
			<path class="st2" d="M50.15,74.08c11.49-7.12,23.67-10.96,35.16-11.54c0.12-16.39,0.24-32.77,0.36-49.16
				c-11.71-0.36-24.14,2.68-35.84,9.12"/>
		</g>
	</g>
</g>
<g id="books" class="st0">
	<g id="Books" class="st1">
		<path class="st4" d="M27.87,51.25c0.09,0,0.19,0,0.28,0c8.89,0,50.75,0.01,58.74,0.01c-5.14,0.07-9.29,4.27-9.29,9.43
			c0,5.21,4.68,9.46,9.89,9.46l-59.34-0.13c-5.18,0-9.38-4.2-9.38-9.38C18.77,55.55,22.81,51.4,27.87,51.25z M12.22,79.53
			c0,5.18,4.2,9.38,9.38,9.38l66.17,0.12c-5.21,0-9.89-4.25-9.89-9.46c0-5.16,4.14-9.36,9.29-9.43c-7.99,0-56.69,0-65.58,0
			c-0.09,0-0.19,0-0.28,0C16.27,70.3,12.22,74.44,12.22,79.53z"/>
		<g>
			<polygon class="st3" points="66.01,30.1 49.7,10.96 32.69,30.1 42.01,30.1 42.01,42.76 57.39,42.76 57.39,30.1 			"/>
		</g>
	</g>
</g>
<g id="reviews">
	<g id="review">
		<polygon class="st3" points="50,30.69 54.64,40.1 65.03,41.61 57.52,48.93 59.29,59.28 50,54.39 40.71,59.28 42.48,48.93 
			34.97,41.61 45.36,40.1 		"/>
		<path class="st4" d="M50,12.21c-18.28,0-33.09,14.82-33.09,33.09c0,10.71,5.28,20.03,13.17,26.08l0.06,16.42l13.14-10.08l0,0
			c2.17,0.45,4.42,0.69,6.73,0.69c18.28,0,33.09-14.82,33.09-33.09C83.09,27.02,68.28,12.21,50,12.21z"/>
	</g>
</g>
<g id="contest" class="st0">
	<g class="st1">
		<path class="st5" d="M50,12.54h22.7c1.03,15.13-0.07,21.72-1.65,27.45c-2.74,9.95-13.62,15.82-16.03,21.85
			c-1.55,3.86,2.18,14.1,6.54,14.88c9.24,1.65,8.45,8.95,8.05,10.73H50"/>
		<line class="st5" x1="61.56" y1="76.73" x2="50" y2="76.73"/>
		<path class="st5" d="M64.51,50.54c0.97,0,11.78,0.05,19.22-11.52c5.79-8.99,3.63-18.47,3.21-20.18c-0.18,0-0.37,0-0.37,0H73.03"/>
		<path class="st6" d="M63.92,19.67c0.46,3.15,0.83,8.49-0.83,14.77c-1.46,5.56-3.92,9.64-5.69,12.11"/>
		<path class="st5" d="M50,87.46H30.39c-0.4-1.78-1.19-9.08,8.05-10.73c4.36-0.78,8.08-11.02,6.54-14.88
			c-2.41-6.03-13.29-11.91-16.03-21.85c-1.58-5.73-2.68-12.31-1.65-27.45H50"/>
		<line class="st5" x1="50" y1="76.73" x2="38.44" y2="76.73"/>
		<path class="st5" d="M26.97,18.85H13.43c0,0-0.18,0-0.37,0c-0.42,1.7-2.58,11.18,3.21,20.18c7.45,11.57,18.25,11.52,19.22,11.52"
			/>
	</g>
</g>
</svg>
