<?xml version="1.0" encoding="utf-8"?>
<!-- Generator: Adobe Illustrator 23.0.3, SVG Export Plug-In . SVG Version: 6.00 Build 0)  -->
<svg version="1.1" id="Layer_1" xmlns="http://www.w3.org/2000/svg" xmlns:xlink="http://www.w3.org/1999/xlink" x="0px" y="0px"
	 viewBox="0 0 100 100" style="enable-background:new 0 0 100 100;" xml:space="preserve">
<style type="text/css">
	.st0{fill:none;}
	.st1{fill:#19395C;}
	.st2{fill:#EF8E30;}
</style>
<g>
	<path class="st0" d="M64.8,64l-3.2,2.1l0.3,0.5c2.7-1.1,5.5-2,8.3-2.7c-0.5-3,0.3-5.3,2.1-8c2.4-3.5,5.2-5.3,9.1-5.2l0-5.9
		l-1.8-2.8l-4.1,1L75,47.1c0,0.4-0.2,0.7-0.6,1L70.5,51c-0.3,0.2-0.7,0.3-1.1,0.2l-4-0.8L63.3,54l2.6,3.2c0.2,0.3,0.4,0.7,0.3,1.1
		l-0.7,4.8C65.3,63.5,65.1,63.8,64.8,64z"/>
	<path class="st0" d="M59,64.5l3.7-2.5l0.6-3.6L60.5,55c-0.4-0.5-0.4-1.1-0.1-1.6l3.2-5.3c0.3-0.5,0.9-0.8,1.5-0.6l4.4,0.9l2.9-2.1
		l0.4-4.4c0.1-0.6,0.5-1.1,1.1-1.2l6-1.5c0.6-0.1,1.2,0.1,1.5,0.6l0.1,0.1l0.1-21c-10.2-0.1-20.8,2.7-30.7,8l0.3,45
		c2.7-1.5,5.4-2.9,8.1-4.1l-0.7-1.5C58.2,65.6,58.4,64.9,59,64.5z"/>
	<path class="st0" d="M17.8,18.8h-0.2l0.3,43.3c10.2,0.7,20.6,4.1,30.4,9.7L48,26.7C38.3,21.6,27.9,18.8,17.8,18.8z"/>
	<path class="st1" d="M88.7,22c-1.4-0.2-2.9-0.4-4.4-0.6l0-3.9c0-0.8-0.6-1.4-1.4-1.4c-11.2-0.3-22.7,2.5-33.5,8.3
		c-10.7-5.7-22.3-8.6-33.4-8.3c-0.8,0-1.4,0.7-1.4,1.4l0,3.9c-1.5,0.2-2.9,0.4-4.4,0.6c-0.7,0.1-1.2,0.7-1.2,1.4v46.5
		c0,0.1,0,0.2,0,0.3c0.1,0.7,0.8,1.2,1.5,1.1c0.2,0,0.3-0.1,0.4-0.1C14,70.9,38.3,73,47.9,81.3c0.5,0.4,1,0.5,1.6,0.5
		c0.6,0,1.2-0.2,1.7-0.6c12-9.9,34.4-10.5,36.7-10.2c0.1,0.1,0.3,0.1,0.4,0.1c0.7,0.1,1.4-0.4,1.5-1.1c0-0.1,0-0.2,0-0.3V23.3
		C89.9,22.7,89.4,22.1,88.7,22z M17.9,62.2l-0.3-43.3h0.2c10.1,0,20.5,2.7,30.2,7.9l0.3,45.1C38.5,66.2,28.1,62.9,17.9,62.2z
		 M51.1,71.8l-0.3-45c9.9-5.3,20.5-8.1,30.7-8l-0.1,21l-0.1-0.1c-0.3-0.5-0.9-0.7-1.5-0.6l-6,1.5c-0.6,0.1-1,0.6-1.1,1.2l-0.4,4.4
		l-2.9,2.1L65,47.5c-0.6-0.1-1.2,0.1-1.5,0.6l-3.2,5.3c-0.3,0.5-0.3,1.2,0.1,1.6l2.8,3.5L62.7,62L59,64.5c-0.6,0.4-0.8,1.1-0.5,1.8
		l0.7,1.5C56.5,68.9,53.8,70.3,51.1,71.8z M65.8,57.2L63.3,54l2.2-3.6l4,0.8c0.4,0.1,0.8,0,1.1-0.2l3.9-2.9c0.3-0.2,0.5-0.6,0.6-1
		l0.4-4.1l4.1-1l1.8,2.8l0,5.9l0.1,10.5c0,0,0,0.1-0.1,0.1c-1.6,0.2-10.5,2.4-11.3,2.6c-2.8,0.7-5.5,1.6-8.3,2.7l-0.3-0.5l3.2-2.1
		c0.3-0.2,0.6-0.6,0.6-1l0.7-4.8C66.2,57.9,66.1,57.5,65.8,57.2z M83.9,64.7c-4.1,0.4-8.1,1.1-12.1,2c-2,0.4-4,1-5.9,1.6
		c-2,0.5-3.9,1.2-5.9,1.9c1.8-1,3.7-1.8,5.7-2.5c1.9-0.7,3.9-1.4,5.9-1.9c3.8-1.1,7.7-1.8,11.6-2.2c0-3.7,0-7.4,0.2-11.2
		c0.1-3.9,0.2-7.8,0.5-11.8c0.3,3.9,0.4,7.8,0.5,11.8c0.1,3.9,0.1,7.8,0.2,11.8l0,0.6L83.9,64.7z"/>
	<path class="st2" d="M72.2,56c-1.9,2.7-2.6,5-2.1,8C69.9,61.3,70.6,58.5,72.2,56c2.2-3.1,5.6-4.9,9.1-5.2
		C77.4,50.7,74.6,52.6,72.2,56z"/>
	<path class="st2" d="M72.3,56.1c-1.6,2.4-2.3,5.2-2.2,7.9c0.8-0.2,9.7-2.4,11.3-2.6c0,0,0-0.1,0.1-0.1l-0.1-10.5
		C77.8,51.1,74.4,53,72.3,56.1z"/>
</g>
</svg>
