<?xml version="1.0" encoding="utf-8"?>
<!-- Generator: Adobe Illustrator 23.0.3, SVG Export Plug-In . SVG Version: 6.00 Build 0)  -->
<svg version="1.1" xmlns="http://www.w3.org/2000/svg" xmlns:xlink="http://www.w3.org/1999/xlink" x="0px" y="0px"
	 viewBox="0 0 100 100" style="enable-background:new 0 0 100 100;" xml:space="preserve">
<style type="text/css">
	.st0{fill:#ff9900;}
	.st1{display:none;}
	.st2{display:inline;}
	.st3{fill:none;}
	.st4{fill:none;}
	.st5{display:inline;fill:none;}
</style>
<g id="authorkit_wp">
	<path class="st0" d="M91.6,18.2c-1.5-0.3-3.1-0.5-4.7-0.7l0-4.1c0-0.8-0.6-1.5-1.4-1.5c-11.9-0.4-24.3,2.7-35.8,8.9
		c-11.5-6.1-23.8-9.2-35.6-8.9c-0.8,0-1.5,0.7-1.5,1.5l0,4.1c-1.6,0.2-3.1,0.4-4.7,0.7c-0.7,0.1-1.2,0.7-1.2,1.5v49.6
		c0,0.1,0,0.2,0,0.3c0.1,0.8,0.8,1.3,1.6,1.2c0.2,0,0.3-0.1,0.5-0.1c3-0.2,28.9,2,39.2,11c0.5,0.4,1.1,0.6,1.7,0.6
		c0.6,0,1.3-0.2,1.8-0.6C64.4,71,88.3,70.4,90.8,70.7c0.1,0.1,0.3,0.1,0.4,0.1c0.8,0.1,1.5-0.4,1.6-1.2c0-0.1,0-0.2,0-0.3V19.7
		C92.9,18.9,92.4,18.3,91.6,18.2z M67.2,55.8l-2.8-3.4l2.3-3.8l4.3,0.9c0.4,0.1,0.8,0,1.2-0.3l4.2-3.1c0.3-0.3,0.6-0.6,0.6-1.1
		l0.5-4.3l4.3-1.1l2,3l0,6.3c-3.8,0.4-7.3,2.3-9.7,5.7c-1.8,2.5-2.5,5.6-2.3,8.5c-3,0.8-5.9,1.7-8.8,2.8l-0.3-0.5l3.5-2.3
		c0.3-0.2,0.6-0.6,0.7-1l0.8-5.1C67.6,56.5,67.5,56.1,67.2,55.8z M84,14.9l-0.2,22.4l-0.1-0.1c-0.3-0.5-1-0.8-1.6-0.6l-6.4,1.6
		c-0.6,0.2-1.1,0.7-1.1,1.3l-0.5,4.7L71,46.4l-4.7-1c-0.6-0.1-1.3,0.1-1.6,0.7l-3.4,5.6c-0.3,0.5-0.3,1.2,0.1,1.7l3,3.7L63.9,61
		l-4,2.6c-0.6,0.4-0.9,1.2-0.5,1.9l0.8,1.6c-2.9,1.3-5.8,2.7-8.7,4.4l-0.3-48.1C61.7,17.7,73.1,14.8,84,14.9z M15.9,14.9
		c10.8,0,21.9,2.9,32.3,8.4l0.3,48.2C38,65.5,26.9,61.9,16,61.1l-0.3-46.3H15.9z"/>
</g>
<g id="books_wp" class="st1">
	<g id="Books_2_" class="st2">
		<path class="st3" d="M87.8,88.8L87.8,88.8c-4.5,0-8.4-3.7-8.4-8c0-4.3,3.5-7.9,7.8-7.9c0,0,0.1,0,0.1,0h0.2c0.8,0,1.5-0.7,1.5-1.5
			c0-0.8-0.7-1.5-1.5-1.5h0c-4.5,0-8.4-3.7-8.4-8c0-4.3,3.5-7.9,7.8-7.9c0.8,0,1.5-0.7,1.5-1.5c0-0.8-0.7-1.5-1.5-1.5H27.8
			c-5.9,0.2-10.6,5-10.6,10.9c0,3.2,1.4,6,3.6,8c-5.7,0.4-10.1,5.1-10.1,10.9c0,6,4.9,10.9,10.9,10.9l66.1,0.1h0
			c0.8,0,1.5-0.7,1.5-1.5C89.3,89.5,88.6,88.8,87.8,88.8z M20.3,61.9c0-2.1,0.8-4.1,2.2-5.5c1.4-1.4,3.3-2.3,5.4-2.4h51.6
			c-2.1,2-3.4,4.8-3.4,7.9c0,3.1,1.4,5.9,3.6,8l-51.6-0.1C23.8,69.8,20.3,66.2,20.3,61.9z M21.6,88.7c-4.4,0-7.9-3.5-7.9-7.9
			c0-4.3,3.4-7.8,7.6-7.9l0.2,0l58.2,0c-2.1,2-3.4,4.8-3.4,7.9c0,3.1,1.4,5.9,3.6,7.9L21.6,88.7z"/>
		<path class="st4" d="M80,88.8l-58.4-0.1c-4.4,0-7.9-3.5-7.9-7.9c0-4.3,3.4-7.8,7.6-7.9l0.2,0l58.2,0c-2.1,2-3.4,4.8-3.4,7.9
			C76.4,83.9,77.8,86.8,80,88.8z"/>
		<path class="st4" d="M79.7,69.9l-51.6-0.1c-4.3,0-7.9-3.5-7.9-7.9c0-2.1,0.8-4.1,2.2-5.5c1.4-1.4,3.3-2.3,5.4-2.4h51.6
			c-2.1,2-3.4,4.8-3.4,7.9C76.1,65,77.5,67.9,79.7,69.9z"/>
		<g>
			<polygon class="st4" points="66,31.3 49.7,12.2 32.7,31.3 42,31.3 42,44 57.4,44 57.4,31.3 			"/>
		</g>
	</g>
</g>
<g id="reviews_wp" class="st1">
	<path class="st5" d="M50,12.2c-18.3,0-33.1,14.8-33.1,33.1c0,10.7,5.3,20,13.2,26.1l0.1,16.4l13.1-10.1c2.2,0.4,4.4,0.7,6.7,0.7
		c18.3,0,33.1-14.8,33.1-33.1C83.1,27,68.3,12.2,50,12.2z M59.3,59.3L50,54.4l-9.3,4.9l1.8-10.4L35,41.6l10.4-1.5l4.6-9.4l4.6,9.4
		L65,41.6l-7.5,7.3L59.3,59.3z"/>
</g>
<g id="contest_wp" class="st1">
	<g id="XMLID_1_" class="st2">
		<path class="st4" d="M86.1,19.9c0.7,3.2,1.6,11.1-3.3,18.6C77.7,46.6,70.8,48.8,67,49.3c2.2-2.6,4-5.6,5-9.1
			c1.4-5.2,2.3-10.8,2-20.4H86.1z"/>
		<path class="st4" d="M72.1,19.8c0.3,10.6-0.8,15.7-2,19.9c-1,3.7-3.3,6.8-5.8,9.7c-1.3,1.4-2.6,2.8-3.9,4c-2.9,2.9-5.3,5.4-6.4,8
			c-1.2,2.9,0.2,8.1,2.1,11.5c0.5,0.9,1.2,1.9,2,2.7H50h-8.1c0.8-0.8,1.5-1.8,1.9-2.7c1.9-3.4,3.3-8.6,2.1-11.5
			c-1.1-2.7-3.5-5.2-6.4-8c-1.3-1.3-2.6-2.6-3.8-4c-2.5-2.8-4.7-6-5.8-9.7c-1.2-4.2-2.2-9.3-2-19.9c0.1-1.9,0.1-4,0.3-6.3H50h21.8
			C71.9,15.8,72,17.9,72.1,19.8z M64.5,34.8c1.3-5,1.6-10.2,0.9-15.4c-0.1-0.8-0.9-1.4-1.7-1.3c-0.8,0.1-1.4,0.9-1.3,1.7
			c0.7,4.8,0.4,9.5-0.8,14.2c-1.1,4.2-2.9,8.1-5.5,11.6c-0.5,0.7-0.3,1.6,0.3,2.1c0.3,0.2,0.6,0.3,0.9,0.3c0.5,0,0.9-0.2,1.2-0.6
			C61.4,43.6,63.4,39.4,64.5,34.8z"/>
		<path class="st4" d="M67.6,81.2c1.3,1.9,1.2,4.1,1.1,5.2H50H31.2c-0.1-1.2-0.1-3.3,1.1-5.2c1.2-1.8,3.3-3,6.2-3.5H50h11.4
			C64.4,78.3,66.5,79.4,67.6,81.2z"/>
		<path class="st3" d="M65.4,19.5c0.8,5.2,0.5,10.3-0.9,15.4c-1.2,4.5-3.2,8.8-5.9,12.6c-0.3,0.4-0.8,0.6-1.2,0.6
			c-0.3,0-0.6-0.1-0.9-0.3c-0.7-0.5-0.8-1.4-0.3-2.1c2.5-3.5,4.4-7.4,5.5-11.6c1.2-4.6,1.5-9.4,0.8-14.2c-0.1-0.8,0.4-1.6,1.3-1.7
			C64.5,18.1,65.3,18.6,65.4,19.5z"/>
		<g>
			<path class="st3" d="M87.9,18.6c-0.1-0.5-0.5-0.8-1-0.8H74c0,0.7,0.1,1.4,0.1,2h12.1c0.7,3.2,1.6,11.1-3.3,18.6
				C77.7,46.5,70.8,48.8,67,49.3c-0.6,0.8-1.3,1.5-1.9,2.2c3-0.1,12.7-1.3,19.5-12C90.3,30.7,88.6,21.3,87.9,18.6z"/>
			<path class="st3" d="M41.9,75.7c-0.9,1-2,1.8-3.3,2c0,0,0,0,0,0H50h11.4c0,0,0,0,0,0c-1.3-0.2-2.4-1-3.3-2H50H41.9z"/>
			<path class="st3" d="M17.1,38.5C12.3,31,13.2,23,13.9,19.8h12.1c0-0.6,0-1.3,0.1-2H13.1c-0.5,0-0.9,0.3-1,0.8
				c-0.7,2.7-2.4,12.1,3.3,21c6.8,10.6,16.5,11.8,19.5,12c-0.6-0.7-1.3-1.4-1.9-2.2C29.2,48.8,22.3,46.6,17.1,38.5z"/>
		</g>
		<path class="st4" d="M28,40.3c1,3.5,2.8,6.4,5,9.1c-3.8-0.6-10.7-2.8-15.9-10.8C12.3,31,13.2,23,13.9,19.9h12.1
			C25.7,29.5,26.5,35,28,40.3z"/>
		<path class="st3" d="M61.9,54.8c1.1-1.1,2.1-2.2,3.2-3.3c0.7-0.7,1.3-1.4,1.9-2.2c2.2-2.6,4-5.6,5-9.1c1.4-5.2,2.3-10.8,2-20.4
			c0-0.6,0-1.3-0.1-2c-0.1-1.7-0.2-3.5-0.3-5.4c0-0.5-0.5-0.9-1-0.9H50H27.3c-0.5,0-1,0.4-1,0.9c-0.1,1.9-0.2,3.7-0.3,5.4
			c0,0.7,0,1.4-0.1,2c-0.2,9.7,0.6,15.2,2,20.4c1,3.5,2.8,6.4,5,9.1c0.6,0.8,1.3,1.5,1.9,2.2c1.1,1.2,2.1,2.2,3.2,3.3
			c2.6,2.6,5,5.1,6,7.4c0.8,2-0.1,6.4-2,9.8c-1.1,2-2.4,3.4-3.6,3.7c-0.1,0-0.1,0-0.2,0c-3.5,0.6-6.1,2.1-7.6,4.4
			c-2.1,3.2-1.4,6.8-1.3,7.5c0.1,0.5,0.5,0.8,1,0.8H50h19.6c0.5,0,0.9-0.3,1-0.8c0.2-0.7,0.8-4.4-1.3-7.5c-1.5-2.3-4.1-3.8-7.6-4.4
			c-0.1,0-0.1,0-0.2,0c-1.2-0.3-2.5-1.7-3.6-3.7c-1.9-3.4-2.8-7.8-2-9.8C56.9,59.9,59.3,57.4,61.9,54.8z M56.2,73
			c0.5,0.9,1.2,1.9,2,2.7c0.9,1,2,1.8,3.3,2c0,0,0,0,0,0c2.9,0.5,5,1.7,6.2,3.5c1.3,1.9,1.2,4.1,1.1,5.2H50H31.2
			c-0.1-1.2-0.2-3.3,1.1-5.2c1.2-1.8,3.3-3,6.2-3.5c0,0,0,0,0,0c1.3-0.2,2.4-1,3.3-2c0.8-0.8,1.5-1.8,1.9-2.7
			c1.9-3.4,3.3-8.6,2.1-11.5c-1.1-2.7-3.5-5.2-6.4-8c-1.3-1.3-2.6-2.6-3.9-4c-2.5-2.8-4.7-6-5.8-9.7c-1.2-4.2-2.2-9.3-2-19.9
			c0-1.9,0.1-4,0.3-6.3H50h21.8c0.1,2.3,0.2,4.4,0.3,6.3c0.3,10.6-0.8,15.6-2,19.9c-1,3.7-3.3,6.9-5.8,9.7c-1.3,1.4-2.6,2.8-3.8,4
			c-2.8,2.9-5.3,5.4-6.4,8C52.9,64.4,54.3,69.6,56.2,73z"/>
	</g>
</g>
</svg>
