<?xml version="1.0" encoding="utf-8"?>
<!-- Generator: Adobe Illustrator 23.0.3, SVG Export Plug-In . SVG Version: 6.00 Build 0)  -->
<svg version="1.1" id="bookshelf" xmlns="http://www.w3.org/2000/svg" xmlns:xlink="http://www.w3.org/1999/xlink" x="0px" y="0px"
	 viewBox="0 0 100 100" style="enable-background:new 0 0 100 100;" xml:space="preserve">
<style type="text/css">
	.st0{fill:#EF8E30;}
	.st1{fill:#19395C;}
</style>
<g>
	<path class="st0" d="M8.2,85.8c0.5-1.1,1.4-1.5,2.6-1.5c26.1,0,52.2,0,78.4,0c0.4,0,0.9,0,1.3,0.1c0.9,0.3,1.4,1.1,1.3,2
		c-0.1,0.9-0.8,1.7-1.7,1.8c-0.3,0-0.7,0-1,0c-26.1,0-52.1,0-78.2,0c-1.2,0-2.1-0.3-2.7-1.4C8.2,86.6,8.2,86.2,8.2,85.8z"/>
	<path class="st1" d="M40.1,28.7c6.6,0,13.2,0,19.8,0c0,13.2,0,26.5,0,39.7c-6.6,0-13.2,0-19.8,0C40.1,55.1,40.1,42,40.1,28.7z"/>
	<path class="st1" d="M64,36.6c6.6,0,13.2,0,19.8,0c0,10.6,0,21.1,0,31.7c-6.6,0-13.2,0-19.8,0C64,57.8,64,47.2,64,36.6z"/>
	<path class="st1" d="M16.2,40.6c6.6,0,13.2,0,19.8,0c0,9.3,0,18.5,0,27.7c-6.6,0-13.2,0-19.8,0C16.2,59.1,16.2,49.9,16.2,40.6z"/>
	<path class="st1" d="M60,72.5c0,2,0,4,0,5.9c0,1.1-0.7,1.8-1.7,1.9c-0.3,0-0.5,0-0.8,0c-4.9,0-9.8,0-14.8,0c-1.9,0-2.6-0.7-2.6-2.5
		c0-1.8,0-3.5,0-5.4C46.7,72.5,53.3,72.5,60,72.5z"/>
	<path class="st1" d="M83.8,32.5c-6.7,0-13.3,0-19.9,0c0-2.1-0.1-4.2,0-6.2c0-1.1,0.9-1.7,2.1-1.7c1.4,0,2.8,0,4.2,0
		c3.7,0,7.3,0,11,0c1.8,0,2.5,0.7,2.5,2.5C83.8,28.9,83.8,30.7,83.8,32.5z"/>
	<path class="st1" d="M36.1,72.5c0,2,0.1,4,0,6c0,1.2-0.9,1.9-2.2,1.9c-2.1,0-4.3,0-6.4,0c-2.9,0-5.8,0-8.7,0
		c-1.8,0-2.5-0.7-2.5-2.5c0-1.8,0-3.6,0-5.4C22.8,72.5,29.4,72.5,36.1,72.5z"/>
	<path class="st1" d="M63.9,72.5c6.7,0,13.3,0,19.9,0c0,2.1,0,4.2,0,6.2c0,1-0.9,1.7-2.1,1.7c-1.2,0-2.5,0-3.8,0
		c-3.8,0-7.6,0-11.4,0c-1.8,0-2.6-0.7-2.6-2.6C63.9,76.1,63.9,74.3,63.9,72.5z"/>
	<path class="st1" d="M59.9,24.6c-6.6,0-13.2,0-19.8,0c0-2.1-0.1-4.2,0-6.2c0-1,0.9-1.7,2.1-1.7c2.5,0,4.9,0,7.4,0
		c2.7,0,5.4,0,8.1,0c1.6,0,2.3,0.7,2.3,2.3c0,1.6,0,3.3,0,4.9C60,24.1,59.9,24.4,59.9,24.6z"/>
	<path class="st1" d="M36.1,36.5c-6.7,0-13.2,0-19.9,0c0-2.1,0-4.2,0-6.3c0-0.9,0.9-1.6,1.9-1.6c1.4,0,2.9,0,4.3,0
		c3.8,0,7.5,0,11.3,0c1.6,0,2.4,0.7,2.4,2.4C36.1,32.9,36.1,34.7,36.1,36.5z"/>
</g>
</svg>
