<svg xmlns="http://www.w3.org/2000/svg" viewBox="0 0 100 100" fill="none">
  <!-- Round orange background -->
  <circle cx="50" cy="50" r="48" fill="#F5A623" opacity="0.15"/>

  <!-- Trophy icon -->
  <g fill="#1E3A5F">
    <!-- Cup body -->
    <path d="M35 25 L35 45 Q35 55 50 55 Q65 55 65 45 L65 25 Z"/>

    <!-- Left handle -->
    <path d="M35 30 L25 30 Q20 30 20 35 Q20 40 25 40 L35 40" opacity="0.7"/>

    <!-- Right handle -->
    <path d="M65 30 L75 30 Q80 30 80 35 Q80 40 75 40 L65 40" opacity="0.7"/>

    <!-- Stem -->
    <rect x="46" y="55" width="8" height="15" rx="1"/>

    <!-- Base -->
    <ellipse cx="50" cy="75" rx="15" ry="4"/>
  </g>

  <!-- Orange accent -->
  <path d="M60 30 Q60 48 52 54" stroke="#F5A623" stroke-width="4" fill="none"
        stroke-linecap="round" opacity="0.6"/>
</svg>
