<?xml version="1.0" encoding="utf-8"?>
<!-- Generator: Adobe Illustrator 23.0.3, SVG Export Plug-In . SVG Version: 6.00 Build 0)  -->
<svg version="1.1" id="Layer_1" xmlns="http://www.w3.org/2000/svg" xmlns:xlink="http://www.w3.org/1999/xlink" x="0px" y="0px"
	 viewBox="0 0 400 100" style="enable-background:new 0 0 400 100;" xml:space="preserve">
<style type="text/css">
	.st0{fill:none;stroke:#FFFFFF;stroke-width:3;stroke-linecap:round;stroke-linejoin:round;stroke-miterlimit:10;}
	.st1{fill:#EF8E30;}
	.st2{fill:none;}
	.st3{enable-background:new    ;}
	.st4{fill:#FFFFFF;}
</style>
<g>
	<g>
		<g>
			<path class="st0" d="M78.5,44l-2.1-3.2c-2.4,0.6-2.4,0.6-4.9,1.2l-0.4,4.1c-1.3,0.9-1.9,1.4-3.2,2.3l-4.1-0.8
				c-1.3,2.2-1.3,2.2-2.6,4.3l2.6,3.2c-0.2,1.6-0.4,2.4-0.6,3.9l-3.5,2.3l1.1,2.2"/>
			<path class="st1" d="M78.3,59.4C78.4,59.4,78.4,59.3,78.3,59.4l0.1-10.2c-3.3,0-6.5,1.5-8.5,4.4c-1.6,2.3-2.1,5-1.7,7.6
				C68.9,60.9,77.1,59.5,78.3,59.4z"/>
		</g>
		<g>
			<path class="st0" d="M24.1,26.2c-1.5,0.2-3,0.4-4.5,0.6c0,12.6,0,25.3,0,37.9c-0.1-0.6,22.4,0.9,31.1,8.5c0.3,0.3,0.9,0.3,1.2,0
				c10.6-8.8,31.2-8.9,31.1-8.5c0-12.6,0-25.3,0-37.9c-1.5-0.2-3-0.5-4.5-0.6"/>
		</g>
		<g>
			<path class="st0" d="M51.3,28.9C42.4,24.1,33,21.8,24.2,22c0.1,12.5,0.2,25,0.3,37.6c8.9,0.4,18.3,3.4,27.1,8.9
				C51.5,55.3,51.4,42.1,51.3,28.9z"/>
		</g>
		<g>
			<path class="st0" d="M51.5,68.4c8.8-5.4,18.1-8.4,26.9-8.8c0.1-12.5,0.2-25,0.3-37.6c-8.9-0.3-18.5,2-27.4,7"/>
		</g>
	</g>
	<rect x="88.7" y="22.9" class="st2" width="291.6" height="42.7"/>
	<g class="st3">
		<path class="st4" d="M117,57.7h-14.8l-2.4,7H89.6L104,25h11.2l14.4,39.7h-10.2L117,57.7z M114.5,50.3l-4.9-14.5l-4.9,14.5H114.5z"
			/>
		<path class="st4" d="M165.1,33.2v31.6h-9.7v-4.3c-1,1.4-2.3,2.5-4,3.4c-1.7,0.8-3.5,1.3-5.6,1.3c-2.4,0-4.5-0.5-6.4-1.6
			c-1.8-1.1-3.3-2.6-4.3-4.7c-1-2-1.5-4.4-1.5-7.2V33.2h9.6v17.1c0,2.1,0.5,3.8,1.6,4.9c1.1,1.2,2.6,1.8,4.4,1.8
			c1.9,0,3.4-0.6,4.5-1.8c1.1-1.2,1.6-2.8,1.6-4.9V33.2H165.1z"/>
		<path class="st4" d="M189.7,56.5v8.2h-4.9c-3.5,0-6.2-0.9-8.2-2.6c-2-1.7-2.9-4.5-2.9-8.4V41.2h-3.8v-8h3.8v-7.7h9.7v7.7h6.3v8
			h-6.3v12.7c0,0.9,0.2,1.6,0.7,2c0.5,0.4,1.2,0.6,2.3,0.6H189.7z"/>
		<path class="st4" d="M223.2,36.4c2.2,2.4,3.3,5.7,3.3,9.9v18.5h-9.6V47.6c0-2.1-0.5-3.8-1.6-4.9c-1.1-1.2-2.6-1.8-4.4-1.8
			c-1.8,0-3.3,0.6-4.4,1.8c-1.1,1.2-1.6,2.8-1.6,4.9v17.1h-9.7V22.9h9.7v14.5c1-1.4,2.3-2.5,4-3.3c1.7-0.8,3.6-1.2,5.7-1.2
			C218.1,32.8,221,34,223.2,36.4z"/>
		<path class="st4" d="M239.3,63.2c-2.5-1.3-4.4-3.2-5.8-5.7c-1.4-2.5-2.1-5.3-2.1-8.6c0-3.2,0.7-6.1,2.2-8.6
			c1.4-2.5,3.4-4.4,5.9-5.7c2.5-1.3,5.3-2,8.4-2c3.1,0,5.9,0.7,8.4,2c2.5,1.3,4.5,3.2,5.9,5.7c1.4,2.5,2.2,5.3,2.2,8.6
			s-0.7,6.1-2.2,8.6c-1.5,2.5-3.4,4.4-5.9,5.7c-2.5,1.3-5.3,2-8.4,2C244.5,65.2,241.7,64.5,239.3,63.2z M252.3,54.8
			c1.3-1.4,2-3.3,2-5.8c0-2.5-0.6-4.5-1.9-5.8c-1.3-1.4-2.8-2-4.7-2c-1.9,0-3.5,0.7-4.7,2c-1.2,1.3-1.9,3.3-1.9,5.9
			c0,2.5,0.6,4.5,1.8,5.8c1.2,1.4,2.8,2,4.6,2C249.4,56.8,251,56.1,252.3,54.8z"/>
		<path class="st4" d="M283.2,34.3c1.7-1,3.6-1.5,5.7-1.5v10.2h-2.7c-2.4,0-4.2,0.5-5.4,1.6c-1.2,1-1.8,2.9-1.8,5.5v14.7h-9.7V33.2
			h9.7v5.3C280.1,36.7,281.5,35.3,283.2,34.3z"/>
	</g>
	<g class="st3">
		<path class="st4" d="M296.6,44.8l20.2,19.9h-1.5l-19.4-19v19h-1.1V24.9h1.1V44l19.4-19.1h1.5L296.6,44.8z"/>
		<path class="st4" d="M322.3,25.9c-0.3-0.3-0.4-0.7-0.4-1.1s0.1-0.8,0.4-1.1s0.6-0.4,1-0.4c0.4,0,0.8,0.1,1,0.4s0.4,0.7,0.4,1.1
			s-0.1,0.8-0.4,1.1s-0.6,0.4-1,0.4C322.9,26.4,322.6,26.2,322.3,25.9z M323.9,34.2v30.6h-1.1V34.2H323.9z"/>
		<path class="st4" d="M335.9,35.3v21.4c0,1.8,0.2,3.3,0.6,4.2c0.4,1,1.1,1.7,2,2.1c0.9,0.4,2.2,0.6,3.8,0.6h3.2v1.1h-3.3
			c-2.6,0-4.5-0.6-5.7-1.8c-1.2-1.2-1.7-3.3-1.7-6.2V35.3h-5v-1.1h5v-7.8h1.1v7.8h9.6v1.1H335.9z"/>
	</g>
</g>
</svg>
