<svg id="wordmark_black" data-name="wordmark black" xmlns="http://www.w3.org/2000/svg" viewBox="0 0 345.73 70.32"><defs><style>.cls-1{fill:#ef8e30;}.cls-2{fill:none;}</style></defs><title>authorkit pro 400x100</title><path d="M105.44,48.27a7.17,7.17,0,0,1-1.89-2.87L89.43,9c-.46,0-1,0-1.51,0s-1,0-1.51,0L73.1,43.36a12,12,0,0,1-2.41,4.24,5.43,5.43,0,0,1-2.53,1.52v1.16a18.43,18.43,0,0,1,2-.15c.75,0,1.56,0,2.41,0q1.74,0,3.48,0c1.17,0,2.37.07,3.61.15V49.12a7.58,7.58,0,0,1-3.78-.88,3.18,3.18,0,0,1-1.39-2.87A16.32,16.32,0,0,1,76,39.47l1.84-4.77H90.9l3.53,9.53c.77,2,.89,3.27.35,3.87S93,49,91,49.12v1.16q1.4-.12,3.6-.15c1.48,0,3.06,0,4.77,0,1.47,0,2.92,0,4.33,0s2.62.07,3.63.15V49.12A3.64,3.64,0,0,1,105.44,48.27ZM78.23,33.54l6.24-16.18,6,16.18Z"/><path d="M135,19.59V44a6.88,6.88,0,0,0,.87,3.87A3.5,3.5,0,0,0,139,49.12v1.22c-1.2-.12-2.41-.18-3.61-.18-1.43,0-2.8.06-4.09.18a18.89,18.89,0,0,0-3.58.63V45.16a9.33,9.33,0,0,1-4,4.57,11.36,11.36,0,0,1-5.43,1.36,10.35,10.35,0,0,1-3.81-.61A6.36,6.36,0,0,1,112,48.82a6.3,6.3,0,0,1-1.39-2.9,21.15,21.15,0,0,1-.41-4.65V26.57a7,7,0,0,0-.84-3.87,3.51,3.51,0,0,0-3.11-1.25V20.23c1.24.12,2.44.17,3.6.17a38.43,38.43,0,0,0,4.1-.2,25,25,0,0,0,3.57-.61V43.3a13.65,13.65,0,0,0,.26,2.79A3.54,3.54,0,0,0,118.84,48a3.57,3.57,0,0,0,2.44.73,5.62,5.62,0,0,0,4.56-2.3,8.81,8.81,0,0,0,1.83-5.67V26.57a7,7,0,0,0-.84-3.87,3.49,3.49,0,0,0-3.11-1.25V20.23c1.24.12,2.44.17,3.6.17a38.3,38.3,0,0,0,4.1-.2A25.37,25.37,0,0,0,135,19.59Z"/><path d="M152.78,10.7v9.59h7.44v1.16h-7.44V44.58a4.59,4.59,0,0,0,.75,3,2.71,2.71,0,0,0,2.16.87,3.53,3.53,0,0,0,2.44-1,8.73,8.73,0,0,0,2-3.4l1.05.47a11.54,11.54,0,0,1-2.7,4.73,6.84,6.84,0,0,1-5.15,1.89A9.85,9.85,0,0,1,150,50.6,6.09,6.09,0,0,1,145.89,46a22.57,22.57,0,0,1-.43-4.94V21.45h-5.12V20.29h5.12V12.21a23.32,23.32,0,0,0,3.89-.41A14.93,14.93,0,0,0,152.78,10.7Z"/><path d="M173.29,4.77V25.34a9.17,9.17,0,0,1,4-4.59,12.08,12.08,0,0,1,5.61-1.33,10.05,10.05,0,0,1,3.9.64,7.18,7.18,0,0,1,2.44,1.62,6.6,6.6,0,0,1,1.42,2.85,20.19,20.19,0,0,1,.44,4.71V44.87c0,1.63.3,2.73.9,3.32a4.31,4.31,0,0,0,3.05.87v1.22l-3.2-.15c-1.43-.06-2.85-.09-4.24-.09s-2.77,0-4.13.09l-3.08.15V49.06a3.34,3.34,0,0,0,2.62-.87,5.32,5.32,0,0,0,.75-3.32V27.26a12.22,12.22,0,0,0-.29-2.82,3.56,3.56,0,0,0-1.13-2,3.76,3.76,0,0,0-2.53-.73A5.9,5.9,0,0,0,175.18,24a8.65,8.65,0,0,0-1.89,5.78V44.87a5.15,5.15,0,0,0,.79,3.32,3.33,3.33,0,0,0,2.59.87v1.22l-2.94-.15c-1.3-.06-2.64-.09-4-.09s-2.84,0-4.33.09l-3.34.15V49.06a4.33,4.33,0,0,0,3-.87c.6-.59.9-1.69.9-3.32V11.75a7,7,0,0,0-.84-3.87A3.49,3.49,0,0,0,162,6.63V5.41c1.24.12,2.44.17,3.6.17a38.1,38.1,0,0,0,4.13-.2A25,25,0,0,0,173.29,4.77Z"/><path d="M212.35,19.42a15.33,15.33,0,0,1,7.12,1.6,11.52,11.52,0,0,1,4.94,5.08,19.81,19.81,0,0,1,1.83,9.18,19.83,19.83,0,0,1-1.83,9.19,11.34,11.34,0,0,1-4.94,5.05,15.57,15.57,0,0,1-7.12,1.57,15.73,15.73,0,0,1-7.15-1.57,11.14,11.14,0,0,1-4.94-5.05,20.11,20.11,0,0,1-1.8-9.19,20.09,20.09,0,0,1,1.8-9.18A11.31,11.31,0,0,1,205.2,21,15.49,15.49,0,0,1,212.35,19.42Zm0,1.16q-2.73,0-4.45,3.46t-1.71,11.24c0,5.2.57,8.93,1.71,11.22s2.63,3.43,4.45,3.43,3.25-1.14,4.42-3.43,1.74-6,1.74-11.22-.58-8.94-1.74-11.24S214.13,20.58,212.35,20.58Z"/><path d="M249.54,19.42a5.56,5.56,0,0,1,3,.75,4.92,4.92,0,0,1,1.77,1.92,5.37,5.37,0,0,1,.58,2.44,4.67,4.67,0,0,1-1.13,3.2,3.83,3.83,0,0,1-3,1.28,4.24,4.24,0,0,1-2.84-.93,3.17,3.17,0,0,1-1.11-2.56,4,4,0,0,1,.73-2.44,6,6,0,0,1,1.65-1.57,2.27,2.27,0,0,0-1.45-.23,5.11,5.11,0,0,0-3.25,1.59,10.19,10.19,0,0,0-2.18,3.38,9.7,9.7,0,0,0-.79,3.69V44.29c0,1.9.49,3.17,1.46,3.81a7.69,7.69,0,0,0,4.24,1v1.22l-3.87-.15c-1.68-.06-3.44-.09-5.26-.09q-2.26,0-4.5.09l-3.34.15V49.06a4.33,4.33,0,0,0,3.05-.87c.6-.59.9-1.69.9-3.32V26.57a7,7,0,0,0-.84-3.87,3.49,3.49,0,0,0-3.11-1.25V20.23c1.24.12,2.44.17,3.6.17a38.43,38.43,0,0,0,4.1-.2,25,25,0,0,0,3.57-.61v6.05a13,13,0,0,1,1.83-3,9.58,9.58,0,0,1,2.73-2.29A7,7,0,0,1,249.54,19.42Z"/><path d="M292.67,47.72a10.54,10.54,0,0,1-1.92-2.15L277.22,25.18l8-9.83a15,15,0,0,1,4.07-3.6,12.39,12.39,0,0,1,3.89-1.46V9.13c-1.32.12-3.1.17-5.35.17-1.47,0-2.83,0-4.07-.05l-3.83-.12v1.16a4.75,4.75,0,0,1,3.31,1.05,2.73,2.73,0,0,1,.52,2.79,12.18,12.18,0,0,1-2.61,4.36L277,23.66a16.22,16.22,0,0,1-3.83,3.43,9,9,0,0,1-4.13,1.25v-13a10.65,10.65,0,0,1,.35-3.17,2.18,2.18,0,0,1,1.31-1.39,8.91,8.91,0,0,1,2.82-.44V9.13l-3.72.12c-1.52,0-3.05.05-4.6.05-1.74,0-3.37,0-4.88-.05l-3.72-.12v1.16a9.14,9.14,0,0,1,2.88.44,2.09,2.09,0,0,1,1.28,1.39,11.61,11.61,0,0,1,.32,3.17V44.12a11.53,11.53,0,0,1-.32,3.13,2,2,0,0,1-1.28,1.4,11.08,11.08,0,0,1-2.88.47v1.16q1.46-.12,3.72-.15c1.51,0,3.14,0,4.88,0,1.55,0,3.08,0,4.6,0s2.75.07,3.72.15V49.12a10.85,10.85,0,0,1-2.82-.47,2.09,2.09,0,0,1-1.31-1.4,10.58,10.58,0,0,1-.35-3.13V29.55a6.5,6.5,0,0,1,1.63.3,3.8,3.8,0,0,1,1.48,1,14.1,14.1,0,0,1,1.66,2.26l8.48,13.37c.58.93.72,1.58.41,2s-1.24.59-2.79.67v1.16c1.66-.08,3.05-.13,4.15-.15l2.76,0,4.25,0c1.55,0,2.92.07,4.12.15V49.12A8.86,8.86,0,0,1,292.67,47.72Z"/><path d="M307.89,19.59V44.87c0,1.63.3,2.73.9,3.32a4.34,4.34,0,0,0,3.06.87v1.22l-3.2-.15c-1.44-.06-2.89-.09-4.36-.09s-2.89,0-4.36.09l-3.31.15V49.06a4.33,4.33,0,0,0,3.05-.87c.6-.59.9-1.69.9-3.32V26.62a7.16,7.16,0,0,0-.84-3.92,3.49,3.49,0,0,0-3.11-1.25V20.23c1.24.12,2.44.17,3.6.17a38.43,38.43,0,0,0,4.1-.2A25,25,0,0,0,307.89,19.59Z"/><path class="cls-1" d="M303.82,5.41a5.05,5.05,0,0,1,3.43,1.16,3.89,3.89,0,0,1,1.34,3.08,3.88,3.88,0,0,1-1.34,3.08,5.6,5.6,0,0,1-6.85,0,3.85,3.85,0,0,1-1.34-3.08,3.86,3.86,0,0,1,1.34-3.08A5,5,0,0,1,303.82,5.41Z"/><path d="M325.68,10.7v9.59h7.44v1.16h-7.44V44.58a4.59,4.59,0,0,0,.75,3,2.7,2.7,0,0,0,2.15.87,3.51,3.51,0,0,0,2.44-1,8.61,8.61,0,0,0,2-3.4l1.05.47a11.67,11.67,0,0,1-2.71,4.73,6.82,6.82,0,0,1-5.14,1.89,9.85,9.85,0,0,1-3.34-.49A6,6,0,0,1,318.79,46a22.48,22.48,0,0,1-.44-4.94V21.45h-5.11V20.29h5.11V12.21a23.33,23.33,0,0,0,3.9-.41A14.93,14.93,0,0,0,325.68,10.7Z"/><path class="cls-2" d="M49.45,39.34l-2,1.31.15.32a42.54,42.54,0,0,1,5.1-1.64A6.2,6.2,0,0,1,54,34.41c1.49-2.14,3.19-3.27,5.61-3.23l0-3.65L58.53,25.8l-2.5.62-.26,2.5a.89.89,0,0,1-.35.61L53,31.31a.93.93,0,0,1-.69.15l-2.46-.52-1.34,2.22,1.59,2a.92.92,0,0,1,.19.68l-.46,3A.86.86,0,0,1,49.45,39.34Z"/><path class="cls-2" d="M45.88,39.62l2.29-1.51.34-2.2-1.73-2.14a.86.86,0,0,1-.08-1l2-3.26a.88.88,0,0,1,.92-.4l2.69.56,1.8-1.32.27-2.73a.9.9,0,0,1,.66-.76l3.7-.9a.86.86,0,0,1,.93.37l.05.06.09-12.93a39.42,39.42,0,0,0-19,4.93L41,44.16a47,47,0,0,1,5-2.52l-.44-.93A.87.87,0,0,1,45.88,39.62Z"/><path class="cls-2" d="M20.45,11.47h-.13l.19,26.72a43.74,43.74,0,0,1,18.76,6L39.1,16.35A40,40,0,0,0,20.45,11.47Z"/><path d="M64.21,13.39c-.89-.15-1.8-.27-2.7-.39l0-2.38a.87.87,0,0,0-.84-.87A41.38,41.38,0,0,0,40,14.87,41.4,41.4,0,0,0,19.43,9.75a.87.87,0,0,0-.85.87l0,2.38c-.91.12-1.81.24-2.7.39a.87.87,0,0,0-.72.86V42.91c0,.06,0,.11,0,.16a.88.88,0,0,0,.94.7.89.89,0,0,0,.28-.07c1.72-.13,16.69,1.17,22.64,6.33a1.62,1.62,0,0,0,1,.33,1.72,1.72,0,0,0,1-.35c7.38-6.12,21.23-6.44,22.64-6.31a.72.72,0,0,0,.25.07.88.88,0,0,0,.94-.67,1.37,1.37,0,0,0,0-.19V14.25A.87.87,0,0,0,64.21,13.39Zm-43.7,24.8-.19-26.72h.13A40,40,0,0,1,39.1,16.35l.17,27.85A43.74,43.74,0,0,0,20.51,38.19Zm20.49,6L40.83,16.4a39.42,39.42,0,0,1,19-4.93L59.7,24.4l-.05-.06a.86.86,0,0,0-.93-.37l-3.7.9a.9.9,0,0,0-.66.76l-.27,2.73-1.8,1.32-2.69-.56a.88.88,0,0,0-.92.4l-2,3.26a.86.86,0,0,0,.08,1l1.73,2.14-.34,2.2-2.29,1.51a.87.87,0,0,0-.31,1.09l.44.93A47,47,0,0,0,41,44.16Zm9.1-9-1.59-2,1.34-2.22,2.46.52a.93.93,0,0,0,.69-.15l2.42-1.78a.89.89,0,0,0,.35-.61l.26-2.5,2.5-.62,1.14,1.73,0,3.65.06,6.5-.05,0c-1,.1-6.47,1.47-6.94,1.6A42.54,42.54,0,0,0,47.61,41l-.15-.32,2-1.31a.86.86,0,0,0,.38-.59l.46-3A.92.92,0,0,0,50.1,35.11Zm11.13,4.64A65,65,0,0,0,53.78,41q-1.85.41-3.66,1c-1.22.34-2.42.75-3.63,1.16C47.62,42.52,48.8,42,50,41.55s2.41-.85,3.64-1.2A44.62,44.62,0,0,1,60.78,39c0-2.29,0-4.59.1-6.88s.14-4.84.31-7.26c.17,2.42.25,4.84.32,7.26s.09,4.83.1,7.25v.38Z"/><path class="cls-1" d="M54,34.41a6.2,6.2,0,0,0-1.32,4.92,7.8,7.8,0,0,1,1.35-4.88,7.68,7.68,0,0,1,5.58-3.27C57.22,31.14,55.52,32.27,54,34.41Z"/><path class="cls-1" d="M54.06,34.45a7.8,7.8,0,0,0-1.35,4.88c.47-.13,6-1.5,6.94-1.6l.05,0-.06-6.5A7.68,7.68,0,0,0,54.06,34.45Z"/></svg>