<?xml version="1.0" encoding="utf-8"?>
<!-- Generator: Adobe Illustrator 23.0.3, SVG Export Plug-In . SVG Version: 6.00 Build 0)  -->
<svg version="1.1" id="Layer_1" xmlns="http://www.w3.org/2000/svg" xmlns:xlink="http://www.w3.org/1999/xlink" x="0px" y="0px"
	 viewBox="0 0 400 100" style="enable-background:new 0 0 400 100;" xml:space="preserve">
<style type="text/css">
	.st0{fill:none;stroke:#FFFFFF;stroke-width:3;stroke-linecap:round;stroke-linejoin:round;stroke-miterlimit:10;}
	.st1{fill:#EF8E30;}
	.st2{fill:none;}
	.st3{fill:#FFFFFF;}
	.st4{font-family:'Poppins-Bold';}
	.st5{font-size:56.5964px;}
	.st6{font-family:'Poppins-Thin';}
</style>
<g>
	<g>
		<g>
			<path class="st0" d="M78.53,44.05l-2.14-3.25c-2.44,0.6-2.45,0.6-4.89,1.2l-0.42,4.12c-1.28,0.94-1.92,1.41-3.2,2.35l-4.06-0.84
				c-1.3,2.15-1.31,2.16-2.61,4.31l2.62,3.21c-0.24,1.57-0.36,2.36-0.6,3.92l-3.46,2.28l1.06,2.25"/>
			<path class="st1" d="M78.35,59.38c0.02-0.03,0.04-0.04,0.06-0.07l0.07-10.15c-3.28-0.04-6.52,1.49-8.54,4.39
				c-1.57,2.26-2.08,5.04-1.68,7.56C68.91,60.93,77.05,59.52,78.35,59.38z"/>
		</g>
		<g>
			<path class="st0" d="M24.14,26.19c-1.5,0.18-2.99,0.4-4.47,0.64c0,12.64,0,25.28,0,37.91c-0.11-0.58,22.39,0.92,31.13,8.51
				c0.34,0.26,0.91,0.26,1.25,0c10.63-8.82,31.23-8.95,31.13-8.51c0-12.64,0-25.28,0-37.91c-1.48-0.24-2.97-0.46-4.47-0.64"/>
		</g>
		<g>
			<path class="st0" d="M51.3,28.92c-8.87-4.85-18.27-7.15-27.13-6.89c0.09,12.52,0.18,25.04,0.27,37.56
				c8.86,0.42,18.26,3.38,27.11,8.89C51.47,55.29,51.39,42.1,51.3,28.92z"/>
		</g>
		<g>
			<path class="st0" d="M51.55,68.4c8.78-5.44,18.09-8.38,26.87-8.81c0.09-12.52,0.18-25.04,0.27-37.56
				c-8.95-0.28-18.45,2.04-27.39,6.97"/>
		</g>
	</g>
	<rect x="88.73" y="22.86" class="st2" width="291.6" height="42.65"/>
	<text transform="matrix(1 0 0 1 88.7346 64.7443)"><tspan x="0" y="0" class="st3 st4 st5">Author</tspan><tspan x="201.25" y="0" class="st3 st6 st5">Kit</tspan></text>
</g>
</svg>
