<?xml version="1.0" encoding="utf-8"?>
<!-- Generator: Adobe Illustrator 23.0.3, SVG Export Plug-In . SVG Version: 6.00 Build 0)  -->
<svg version="1.1" id="Layer_2" xmlns="http://www.w3.org/2000/svg" xmlns:xlink="http://www.w3.org/1999/xlink" x="0px" y="0px"
	 viewBox="0 0 400 100" style="enable-background:new 0 0 400 100;" xml:space="preserve">
<style type="text/css">
	.st0{fill:none;}
	.st1{fill:#19395C;}
	.st2{fill:#EF8E30;}
</style>
<g>
	<path class="st0" d="M65.2,58.1l-2.4,1.6l0.2,0.4c2-0.8,4.1-1.4,6.1-2c-0.4-2.2,0.2-3.9,1.6-5.9c1.8-2.6,3.8-3.9,6.7-3.9l0-4.4
		l-1.4-2.1l-3,0.7l-0.3,3c0,0.3-0.2,0.6-0.4,0.7l-2.9,2.1c-0.2,0.2-0.5,0.2-0.8,0.2l-3-0.6l-1.6,2.6l1.9,2.3
		c0.2,0.2,0.3,0.5,0.2,0.8l-0.5,3.5C65.6,57.7,65.4,58,65.2,58.1z"/>
	<path class="st0" d="M60.9,58.4l2.7-1.8l0.4-2.6L62,51.5c-0.3-0.3-0.3-0.8-0.1-1.2l2.4-3.9c0.2-0.4,0.7-0.6,1.1-0.5l3.2,0.7
		l2.1-1.6l0.3-3.3c0-0.4,0.4-0.8,0.8-0.9l4.4-1.1c0.4-0.1,0.9,0.1,1.1,0.4l0.1,0.1l0.1-15.5c-7.6-0.1-15.4,2-22.7,5.9l0.2,33.2
		c2-1.1,4-2.1,6-3l-0.5-1.1C60.3,59.3,60.5,58.7,60.9,58.4z"/>
	<path class="st0" d="M30.5,24.8h-0.2l0.2,32c7.5,0.5,15.2,3,22.4,7.2l-0.2-33.3C45.6,26.8,37.9,24.8,30.5,24.8z"/>
	<path class="st1" d="M82.9,27.1c-1.1-0.2-2.1-0.3-3.2-0.5l0-2.8c0-0.6-0.4-1-1-1c-8.2-0.2-16.8,1.9-24.7,6.1
		c-7.9-4.2-16.4-6.4-24.6-6.1c-0.6,0-1,0.5-1,1l0,2.8c-1.1,0.1-2.2,0.3-3.2,0.5c-0.5,0.1-0.9,0.5-0.9,1v34.3c0,0.1,0,0.1,0,0.2
		c0.1,0.5,0.6,0.9,1.1,0.8c0.1,0,0.2,0,0.3-0.1c2.1-0.2,20,1.4,27.1,7.6c0.3,0.3,0.8,0.4,1.2,0.4c0.4,0,0.9-0.1,1.2-0.4
		c8.8-7.3,25.4-7.7,27.1-7.5c0.1,0,0.2,0.1,0.3,0.1c0.5,0,1-0.3,1.1-0.8c0-0.1,0-0.2,0-0.2V28.1C83.7,27.6,83.4,27.1,82.9,27.1z
		 M30.6,56.7l-0.2-32h0.2c7.4,0,15.1,2,22.3,5.8L53,63.9C45.8,59.7,38.1,57.3,30.6,56.7z M55.1,63.9l-0.2-33.2
		c7.3-3.9,15.1-6,22.7-5.9l-0.1,15.5l-0.1-0.1c-0.2-0.4-0.7-0.5-1.1-0.4l-4.4,1.1c-0.4,0.1-0.7,0.5-0.8,0.9L70.8,45l-2.1,1.6
		l-3.2-0.7c-0.4-0.1-0.9,0.1-1.1,0.5l-2.4,3.9c-0.2,0.4-0.2,0.9,0.1,1.2l2.1,2.6l-0.4,2.6l-2.7,1.8c-0.4,0.3-0.6,0.8-0.4,1.3
		l0.5,1.1C59.1,61.7,57.1,62.7,55.1,63.9z M66,53.1l-1.9-2.3l1.6-2.6l3,0.6c0.3,0.1,0.6,0,0.8-0.2l2.9-2.1c0.2-0.2,0.4-0.4,0.4-0.7
		l0.3-3l3-0.7l1.4,2.1l0,4.4l0.1,7.8c0,0,0,0-0.1,0.1c-1.1,0.1-7.7,1.8-8.3,1.9c-2,0.5-4.1,1.2-6.1,2l-0.2-0.4l2.4-1.6
		c0.2-0.2,0.4-0.4,0.5-0.7l0.5-3.5C66.2,53.6,66.2,53.3,66,53.1z M79.3,58.6c-3,0.3-6,0.8-8.9,1.5c-1.5,0.3-2.9,0.7-4.4,1.2
		c-1.5,0.4-2.9,0.9-4.3,1.4c1.4-0.7,2.8-1.3,4.2-1.9c1.4-0.5,2.9-1,4.4-1.4c2.8-0.8,5.7-1.3,8.6-1.7c0-2.7,0-5.5,0.1-8.2
		c0.1-2.9,0.2-5.8,0.4-8.7c0.2,2.9,0.3,5.8,0.4,8.7c0.1,2.9,0.1,5.8,0.1,8.7l0,0.4L79.3,58.6z"/>
	<path class="st2" d="M70.7,52.2c-1.4,2-1.9,3.7-1.6,5.9C69,56.1,69.5,54,70.7,52.2c1.6-2.3,4.1-3.6,6.7-3.9
		C74.5,48.3,72.5,49.7,70.7,52.2z"/>
	<path class="st2" d="M70.7,52.3c-1.2,1.7-1.7,3.8-1.6,5.8c0.6-0.2,7.2-1.8,8.3-1.9c0,0,0,0,0.1-0.1l-0.1-7.8
		C74.8,48.6,72.3,49.9,70.7,52.3z"/>
	<path class="st1" d="M123.5,57h-15.2l-2.4,7.2H95.4l14.8-40.8h11.5l14.8,40.8h-10.5L123.5,57z M120.9,49.3l-5.1-14.9l-5,14.9H120.9
		z"/>
	<path class="st1" d="M173.1,31.7v32.4h-9.9v-4.4c-1,1.4-2.4,2.6-4.1,3.5c-1.7,0.9-3.6,1.3-5.7,1.3c-2.5,0-4.7-0.6-6.6-1.7
		c-1.9-1.1-3.4-2.7-4.4-4.8c-1-2.1-1.6-4.6-1.6-7.4V31.7h9.9v17.6c0,2.2,0.6,3.9,1.7,5.1c1.1,1.2,2.6,1.8,4.5,1.8
		c1.9,0,3.5-0.6,4.6-1.8c1.1-1.2,1.7-2.9,1.7-5.1V31.7H173.1z"/>
	<path class="st1" d="M198.5,55.7v8.4h-5.1c-3.6,0-6.4-0.9-8.4-2.6c-2-1.8-3-4.6-3-8.6V40h-4v-8.3h4v-7.9h9.9v7.9h6.5V40h-6.5v13
		c0,1,0.2,1.7,0.7,2.1c0.5,0.4,1.2,0.6,2.3,0.6H198.5z"/>
	<path class="st1" d="M233.1,35.1c2.2,2.5,3.4,5.8,3.4,10.1v18.9h-9.9V46.5c0-2.2-0.6-3.9-1.7-5.1c-1.1-1.2-2.6-1.8-4.5-1.8
		s-3.4,0.6-4.5,1.8c-1.1,1.2-1.7,2.9-1.7,5.1v17.6h-9.9v-43h9.9v14.9c1-1.4,2.4-2.6,4.1-3.4c1.7-0.9,3.7-1.3,5.9-1.3
		C227.8,31.4,230.8,32.6,233.1,35.1z"/>
	<path class="st1" d="M249.7,62.6c-2.5-1.4-4.5-3.3-6-5.8c-1.5-2.5-2.2-5.5-2.2-8.8c0-3.3,0.7-6.3,2.2-8.8c1.5-2.5,3.5-4.5,6-5.8
		c2.6-1.4,5.4-2,8.6-2c3.2,0,6,0.7,8.6,2c2.6,1.4,4.6,3.3,6,5.8c1.5,2.5,2.2,5.5,2.2,8.8c0,3.3-0.7,6.3-2.2,8.8
		c-1.5,2.5-3.5,4.5-6.1,5.8c-2.6,1.4-5.5,2-8.6,2C255.1,64.6,252.3,63.9,249.7,62.6z M263.1,53.9c1.3-1.4,2-3.4,2-6
		c0-2.6-0.6-4.6-1.9-6c-1.3-1.4-2.9-2.1-4.8-2.1c-1.9,0-3.5,0.7-4.8,2.1c-1.3,1.4-1.9,3.4-1.9,6c0,2.6,0.6,4.6,1.9,6
		c1.3,1.4,2.8,2.1,4.7,2.1C260.2,56,261.8,55.3,263.1,53.9z"/>
	<path class="st1" d="M295,32.9c1.7-1,3.7-1.5,5.8-1.5v10.5h-2.7c-2.5,0-4.3,0.5-5.6,1.6c-1.2,1.1-1.9,2.9-1.9,5.6v15.1h-9.9V31.7
		h9.9v5.4C291.8,35.4,293.3,33.9,295,32.9z"/>
	<path class="st1" d="M328.6,64.2l-16.7-18.5v18.5h-5.3V23.7h5.3v18.8l16.7-18.8h6.7L317,43.9l18.5,20.2H328.6z"/>
	<path class="st2" d="M341.8,26.1c-0.7-0.7-1-1.5-1-2.6c0-1,0.3-1.9,1-2.6c0.7-0.7,1.5-1,2.6-1c1,0,1.8,0.3,2.5,1
		c0.7,0.7,1,1.5,1,2.6c0,1-0.3,1.9-1,2.6c-0.7,0.7-1.5,1-2.5,1C343.4,27.1,342.5,26.8,341.8,26.1z"/>
	<rect x="341.6" y="32.3" class="st1" width="5.3" height="31.8"/>
	<path class="st1" d="M362.6,36.7v18.8c0,1.6,0.3,2.6,1,3.3c0.7,0.6,1.8,1,3.4,1h3.9v4.5h-4.8c-2.9,0-5.2-0.7-6.6-2
		c-1.5-1.4-2.2-3.6-2.2-6.7V36.7h-4.1v-4.4h4.1v-8h5.3v8h8.3v4.4H362.6z"/>
</g>
</svg>
