<?xml version="1.0" encoding="utf-8"?>
<!-- Generator: Adobe Illustrator 23.0.3, SVG Export Plug-In . SVG Version: 6.00 Build 0)  -->
<svg version="1.1" id="Layer_1" xmlns="http://www.w3.org/2000/svg" xmlns:xlink="http://www.w3.org/1999/xlink" x="0px" y="0px"
	 viewBox="0 0 400 100" style="enable-background:new 0 0 400 100;" xml:space="preserve">
<style type="text/css">
	.st0{fill:none;}
	.st1{fill:#FFFFFF;}
	.st2{fill:#EF8E30;}
</style>
<g>
	<path class="st0" d="M60.5,59.6l-2.4,1.6l0.2,0.4c2-0.8,4.1-1.4,6.1-2c-0.4-2.2,0.2-3.9,1.6-5.9c1.8-2.6,3.8-3.9,6.7-3.9v-4.4
		l-1.4-2.1l-3,0.7L68,47c0,0.3-0.2,0.6-0.4,0.7l-2.9,2.1C64.5,50,64.2,50,63.9,50l-3-0.6L59.3,52l1.9,2.3c0.2,0.2,0.3,0.5,0.2,0.8
		l-0.5,3.5C60.9,59.2,60.7,59.5,60.5,59.6z"/>
	<path class="st0" d="M56.2,59.9l2.7-1.8l0.4-2.6l-2-2.5c-0.3-0.3-0.3-0.8-0.1-1.2l2.4-3.9c0.2-0.4,0.7-0.6,1.1-0.5l3.2,0.7l2.1-1.6
		l0.3-3.3c0-0.4,0.4-0.8,0.8-0.9l4.4-1.1c0.4-0.1,0.9,0.1,1.1,0.4l0.1,0.1l0.1-15.5c-7.6-0.1-15.4,2-22.7,5.9l0.2,33.2
		c2-1.1,4-2.1,6-3l-0.5-1.1C55.6,60.8,55.8,60.2,56.2,59.9z"/>
	<path class="st0" d="M25.8,26.3h-0.2l0.2,32c7.5,0.5,15.2,3,22.4,7.2L48,32.2C40.9,28.3,33.2,26.3,25.8,26.3z"/>
	<path class="st1" d="M78.2,28.6c-1.1-0.2-2.1-0.3-3.2-0.5v-2.8c0-0.6-0.4-1-1-1c-8.2-0.2-16.8,1.9-24.7,6.1
		c-7.9-4.2-16.4-6.4-24.6-6.1c-0.6,0-1,0.5-1,1v2.8c-1.1,0.1-2.2,0.3-3.2,0.5c-0.5,0.1-0.9,0.5-0.9,1v34.3c0,0.1,0,0.1,0,0.2
		c0.1,0.5,0.6,0.9,1.1,0.8c0.1,0,0.2,0,0.3-0.1c2.1-0.2,20,1.4,27.1,7.6c0.3,0.3,0.8,0.4,1.2,0.4s0.9-0.1,1.2-0.4
		c8.8-7.3,25.4-7.7,27.1-7.5c0.1,0,0.2,0.1,0.3,0.1c0.5,0,1-0.3,1.1-0.8c0-0.1,0-0.2,0-0.2V29.6C79,29.1,78.7,28.6,78.2,28.6z
		 M25.9,58.2l-0.2-32h0.2c7.4,0,15.1,2,22.3,5.8l0.1,33.4C41.1,61.2,33.4,58.8,25.9,58.2z M50.4,65.4l-0.2-33.2
		c7.3-3.9,15.1-6,22.7-5.9l-0.1,15.5l-0.1-0.1c-0.2-0.4-0.7-0.5-1.1-0.4l-4.4,1.1c-0.4,0.1-0.7,0.5-0.8,0.9l-0.3,3.2L64,48.1
		l-3.2-0.7c-0.4-0.1-0.9,0.1-1.1,0.5l-2.4,3.9c-0.2,0.4-0.2,0.9,0.1,1.2l2.1,2.6l-0.4,2.6L56.4,60c-0.4,0.3-0.6,0.8-0.4,1.3l0.5,1.1
		C54.4,63.2,52.4,64.2,50.4,65.4z M61.3,54.6l-1.9-2.3l1.6-2.6l3,0.6c0.3,0.1,0.6,0,0.8-0.2l2.9-2.1c0.2-0.2,0.4-0.4,0.4-0.7l0.3-3
		l3-0.7l1.4,2.1v4.4l0.1,7.8c0,0,0,0-0.1,0.1c-1.1,0.1-7.7,1.8-8.3,1.9c-2,0.5-4.1,1.2-6.1,2l-0.2-0.4l2.4-1.6
		c0.2-0.2,0.4-0.4,0.5-0.7l0.5-3.5C61.5,55.1,61.5,54.8,61.3,54.6z M74.6,60.1c-3,0.3-6,0.8-8.9,1.5c-1.5,0.3-2.9,0.7-4.4,1.2
		c-1.5,0.4-2.9,0.9-4.3,1.4c1.4-0.7,2.8-1.3,4.2-1.9c1.4-0.5,2.9-1,4.4-1.4c2.8-0.8,5.7-1.3,8.6-1.7c0-2.7,0-5.5,0.1-8.2
		c0.1-2.9,0.2-5.8,0.4-8.7c0.2,2.9,0.3,5.8,0.4,8.7s0.1,5.8,0.1,8.7v0.4H74.6z"/>
	<path class="st2" d="M66,53.7c-1.4,2-1.9,3.7-1.6,5.9C64.3,57.6,64.8,55.5,66,53.7c1.6-2.3,4.1-3.6,6.7-3.9
		C69.8,49.8,67.8,51.2,66,53.7z"/>
	<path class="st2" d="M66,53.8c-1.2,1.7-1.7,3.8-1.6,5.8c0.6-0.2,7.2-1.8,8.3-1.9c0,0,0,0,0.1-0.1l-0.1-7.8
		C70.1,50.1,67.6,51.4,66,53.8z"/>
	<path class="st1" d="M118.8,58.5h-15.2l-2.4,7.2H90.7l14.8-40.8H117l14.8,40.8h-10.5L118.8,58.5z M116.2,50.8l-5.1-14.9l-5,14.9
		C106.1,50.8,116.2,50.8,116.2,50.8z"/>
	<path class="st1" d="M168.4,33.2v32.4h-9.9v-4.4c-1,1.4-2.4,2.6-4.1,3.5c-1.7,0.9-3.6,1.3-5.7,1.3c-2.5,0-4.7-0.6-6.6-1.7
		c-1.9-1.1-3.4-2.7-4.4-4.8s-1.6-4.6-1.6-7.4V33.2h9.9v17.6c0,2.2,0.6,3.9,1.7,5.1c1.1,1.2,2.6,1.8,4.5,1.8s3.5-0.6,4.6-1.8
		s1.7-2.9,1.7-5.1V33.2H168.4z"/>
	<path class="st1" d="M193.8,57.2v8.4h-5.1c-3.6,0-6.4-0.9-8.4-2.6c-2-1.8-3-4.6-3-8.6V41.5h-4v-8.3h4v-7.9h9.9v7.9h6.5v8.3h-6.5v13
		c0,1,0.2,1.7,0.7,2.1c0.5,0.4,1.2,0.6,2.3,0.6C190.2,57.2,193.8,57.2,193.8,57.2z"/>
	<path class="st1" d="M228.4,36.6c2.2,2.5,3.4,5.8,3.4,10.1v18.9h-9.9V48c0-2.2-0.6-3.9-1.7-5.1c-1.1-1.2-2.6-1.8-4.5-1.8
		s-3.4,0.6-4.5,1.8s-1.7,2.9-1.7,5.1v17.6h-9.9v-43h9.9v14.9c1-1.4,2.4-2.6,4.1-3.4c1.7-0.9,3.7-1.3,5.9-1.3
		C223.1,32.9,226.1,34.1,228.4,36.6z"/>
	<path class="st1" d="M245,64.1c-2.5-1.4-4.5-3.3-6-5.8s-2.2-5.5-2.2-8.8s0.7-6.3,2.2-8.8s3.5-4.5,6-5.8c2.6-1.4,5.4-2,8.6-2
		s6,0.7,8.6,2c2.6,1.4,4.6,3.3,6,5.8c1.5,2.5,2.2,5.5,2.2,8.8s-0.7,6.3-2.2,8.8s-3.5,4.5-6.1,5.8c-2.6,1.4-5.5,2-8.6,2
		C250.4,66.1,247.6,65.4,245,64.1z M258.4,55.4c1.3-1.4,2-3.4,2-6s-0.6-4.6-1.9-6s-2.9-2.1-4.8-2.1s-3.5,0.7-4.8,2.1
		c-1.3,1.4-1.9,3.4-1.9,6s0.6,4.6,1.9,6c1.3,1.4,2.8,2.1,4.7,2.1S257.1,56.8,258.4,55.4z"/>
	<path class="st1" d="M290.3,34.4c1.7-1,3.7-1.5,5.8-1.5v10.5h-2.7c-2.5,0-4.3,0.5-5.6,1.6c-1.2,1.1-1.9,2.9-1.9,5.6v15.1H276V33.2
		h9.9v5.4C287.1,36.9,288.6,35.4,290.3,34.4z"/>
	<path class="st1" d="M323.9,65.7l-16.7-18.5v18.5h-5.3V25.2h5.3V44l16.7-18.8h6.7l-18.3,20.2l18.5,20.2L323.9,65.7L323.9,65.7z"/>
	<path class="st1" d="M337.1,27.6c-0.7-0.7-1-1.5-1-2.6c0-1,0.3-1.9,1-2.6s1.5-1,2.6-1c1,0,1.8,0.3,2.5,1s1,1.5,1,2.6
		c0,1-0.3,1.9-1,2.6s-1.5,1-2.5,1S337.8,28.3,337.1,27.6z"/>
	<rect x="336.9" y="33.8" class="st1" width="5.3" height="31.8"/>
	<path class="st1" d="M357.9,38.2V57c0,1.6,0.3,2.6,1,3.3c0.7,0.6,1.8,1,3.4,1h3.9v4.5h-4.8c-2.9,0-5.2-0.7-6.6-2
		c-1.5-1.4-2.2-3.6-2.2-6.7V38.2h-4.1v-4.4h4.1v-8h5.3v8h8.3v4.4H357.9z"/>
</g>
</svg>
